<?xml version="1.0" encoding="UTF-8"?><svg id="Calque_1" xmlns="http://www.w3.org/2000/svg" viewBox="0 0 672.2 145.73"><defs><style>.cls-1{fill:#e85b21;}.cls-2{fill:#1f134a;}</style></defs><g><g><path class="cls-2" d="m0,25.01v-12.3C0,5.24,5.78,0,14.15,0s14.03,5.14,14.21,12.4h-3.55c-.12-5.81-4.58-9.45-10.66-9.45C7.71,2.96,3.55,6.75,3.55,13.49v11.57c0,5.97,4.52,9.65,10.6,9.65s10.66-3.68,10.66-9.65v-2.08h-10.6v-2.75h14.15v4.77c0,7.47-5.84,12.72-14.21,12.72S0,32.49,0,25.01Z"/><path class="cls-2" d="m36.43.62h12.28c8.49,0,14.21,4.31,14.21,11.99v1.35c0,6.49-4.52,10.27-11.08,11.11l10.96,12.14h-4.27l-10.29-11.63h-8.25v11.63h-3.55V.62Zm11.98,22.01c6.32,0,10.96-2.8,10.96-8.67v-1.45c0-6.18-4.58-8.87-10.96-8.87h-8.43v18.99h8.43Z"/><path class="cls-2" d="m68.88,24.91v-12.09C68.88,5.29,74.66.05,83.09.05s14.21,5.24,14.21,12.77v12.09c0,7.53-5.9,12.72-14.21,12.72s-14.21-5.19-14.21-12.72Zm14.21,9.76c5.9,0,10.66-3.53,10.66-9.65v-12.3c0-5.97-4.52-9.7-10.66-9.7s-10.66,3.58-10.66,9.65v12.35c0,5.97,4.45,9.65,10.66,9.65Z"/><path class="cls-2" d="m104.77,24.91V.62h3.55v24.39c0,6.12,4.7,9.65,10.66,9.65s10.66-3.68,10.66-9.65V.62h3.55v24.29c0,7.53-5.9,12.72-14.21,12.72s-14.21-5.19-14.21-12.72Z"/><path class="cls-2" d="m141.86.62h12.1c8.37,0,14.39,4.46,14.39,12.46v1.35c0,7.99-6.02,12.2-14.39,12.2h-8.55v10.59h-3.55V.62Zm11.98,23.04c6.32,0,10.96-3.01,10.96-9.29v-1.3c0-6.69-4.82-9.44-10.96-9.44h-8.43v20.03h8.43Z"/><path class="cls-2" d="m175.52.62h23.54v3.01h-19.99v13.7h14.33v2.75h-14.33v14.17h19.99v2.96h-23.54V.62Z"/></g><polygon class="cls-1" points="672.2 99.6 672.2 109.5 672.07 109.44 592.07 145.73 592.07 135.95 661.29 104.55 592.07 73.15 592.07 63.38 672.07 99.66 672.2 99.6"/></g><g><polyline class="cls-2" points="10.4 144.29 10.4 64.08 1.98 64.08 1.98 144.29"/><polygon class="cls-2" points="554.53 72.5 554.53 64.08 501.4 64.08 501.4 144.29 554.53 144.29 554.53 135.27 509.81 135.27 509.81 110.37 538.91 110.37 538.91 101.96 509.81 101.96 509.81 72.5 554.53 72.5"/><path class="cls-2" d="m177.11,64.08h-35.4v1.63h-.08v78.58h8.42v-26.05h27.06c14.93,0,27.08-12.15,27.08-27.08s-12.15-27.08-27.08-27.08Zm0,45.75h-27.06v-37.33h27.06c10.29,0,18.67,8.38,18.67,18.67s-8.37,18.67-18.67,18.67Z"/><path class="cls-2" d="m341.25,91.16c0-14.93-12.15-27.08-27.08-27.08h-35.4v1.63h-.08v78.58h8.41v-26.05h19.14l24.14,26.05h11.55l-24.37-26.29c13.33-1.68,23.68-13.06,23.68-26.84Zm-54.14-18.67h27.06c10.29,0,18.67,8.38,18.67,18.67s-8.38,18.67-18.67,18.67h-27.06v-37.33Z"/><path class="cls-2" d="m98.58,62.17c-9.62,0-18.07,5.06-22.87,12.65-4.8-7.59-13.25-12.65-22.87-12.65-14.93,0-27.08,12.15-27.08,27.08v55.04h8.42v-55.04c0-10.29,8.37-18.67,18.67-18.67s18.67,8.38,18.67,18.67v55.04h8.42v-55.04c0-10.29,8.37-18.67,18.67-18.67s18.67,8.38,18.67,18.67v55.04h8.42v-55.04c0-14.93-12.15-27.08-27.08-27.08Z"/><polygon class="cls-1" points="238.73 64.16 229.48 64.16 229.53 64.29 195.61 144.29 204.76 144.29 234.11 75.07 263.45 144.29 272.6 144.29 238.68 64.29 238.73 64.16"/><path class="cls-2" d="m492.04,91.16c0-14.93-12.15-27.08-27.08-27.08h-35.4v1.63h-.08v78.58h8.41v-26.05h19.14l24.14,26.05h11.55l-24.37-26.29c13.33-1.68,23.68-13.06,23.68-26.84Zm-54.14-18.67h27.06c10.29,0,18.67,8.38,18.67,18.67s-8.38,18.67-18.67,18.67h-27.06v-37.33Z"/><polygon class="cls-1" points="389.52 64.16 380.26 64.16 380.32 64.29 346.4 144.29 355.54 144.29 384.89 75.07 414.24 144.29 423.38 144.29 389.46 64.29 389.52 64.16"/></g></svg>