<?xml version="1.0" encoding="UTF-8" standalone="no"?>
<svg width="200" height="91" viewBox="0 0 200 91" fill="none" xmlns="http://www.w3.org/2000/svg">
<path d="M7.93333 82.8738C7.93333 84.1216 7.19275 85.0144 5.95507 85.2781C7.48696 85.5013 8.38986 86.5057 8.38986 87.9665C8.38986 89.7723 6.95942 90.8578 4.54493 90.8578H0V80.2158H4.48406C6.62464 80.2158 7.93333 81.1999 7.93333 82.8738ZM6.68551 83.0564C6.68551 81.9608 5.85362 81.3419 4.42319 81.3419H1.21739V84.8216H4.42319C5.85362 84.8216 6.68551 84.1825 6.68551 83.0564ZM7.15217 87.8144C7.15217 86.6274 6.14783 85.9274 4.41305 85.9477H1.20724V89.7318H4.41305C6.14783 89.7419 7.15217 89.052 7.15217 87.8144Z" fill="#3D4543"/>
<path d="M15.1286 89.7824C17.1474 89.7824 18.3648 88.565 18.3648 86.465V80.2056H19.5822V86.465C19.5822 89.2447 17.9083 90.8882 15.1286 90.8882C12.3489 90.8882 10.6445 89.2447 10.6445 86.465V80.2056H11.8619V86.465C11.8619 88.565 13.1097 89.7824 15.1286 89.7824Z" fill="#3D4543"/>
<path d="M25.6476 81.3521C24.2781 81.3521 23.3853 81.8999 23.3853 82.813C23.3853 85.5825 29.3708 84.1318 29.3607 87.997C29.3607 89.7622 27.7984 90.8985 25.5158 90.8985C23.9636 90.8985 22.4418 90.2289 21.4375 89.2753L21.9853 88.2304C22.9694 89.1738 24.3288 89.7217 25.5259 89.7217C27.0578 89.7217 28.0216 89.1028 28.0216 88.068C28.0317 85.2275 22.0462 86.7289 22.0462 82.9144C22.0462 81.2405 23.5172 80.1753 25.7288 80.1753C26.9563 80.1753 28.2245 80.5709 29.1071 81.1594L28.5897 82.2347C27.636 81.6159 26.51 81.3521 25.6578 81.3521H25.6476Z" fill="#3D4543"/>
<path d="M33.0729 80.2056V90.8476H31.8555V80.2056H33.0729Z" fill="#3D4543"/>
<path d="M37.5572 80.2056L43.9383 88.8592V80.2056H45.1354V90.8476H43.8876L37.5065 82.2143V90.8476H36.2891V80.2056H37.547H37.5572Z" fill="#3D4543"/>
<path d="M55.606 80.2056V81.3317H49.6002V84.9027H54.9669V86.0085H49.6002V89.7215H55.7988V90.8476H48.3828V80.2056H55.606Z" fill="#3D4543"/>
<path d="M61.3703 81.3521C60.0007 81.3521 59.108 81.8999 59.108 82.813C59.108 85.5825 65.0935 84.1318 65.0833 87.997C65.0833 89.7622 63.521 90.8985 61.2384 90.8985C59.6862 90.8985 58.1645 90.2289 57.1602 89.2753L57.708 88.2304C58.692 89.1738 60.0515 89.7217 61.2486 89.7217C62.7804 89.7217 63.7442 89.1028 63.7442 88.068C63.7544 85.2275 57.7689 86.7289 57.7689 82.9144C57.7689 81.2405 59.2399 80.1753 61.4515 80.1753C62.679 80.1753 63.9471 80.5709 64.8297 81.1594L64.3123 82.2347C63.3587 81.6159 62.2326 81.3521 61.3804 81.3521H61.3703Z" fill="#3D4543"/>
<path d="M70.6633 81.3521C69.2937 81.3521 68.401 81.8999 68.401 82.813C68.401 85.5825 74.3865 84.1318 74.3763 87.997C74.3763 89.7622 72.814 90.8985 70.5314 90.8985C68.9792 90.8985 67.4575 90.2289 66.4531 89.2753L67.001 88.2304C67.985 89.1738 69.3444 89.7217 70.5415 89.7217C72.0734 89.7217 73.0372 89.1028 73.0372 88.068C73.0473 85.2275 67.0618 86.7289 67.0618 82.9144C67.0618 81.2405 68.5328 80.1753 70.7444 80.1753C71.972 80.1753 73.2401 80.5709 74.1227 81.1594L73.6053 82.2347C72.6517 81.6159 71.5256 81.3521 70.6734 81.3521H70.6633Z" fill="#3D4543"/>
<path d="M84.5109 81.3521C83.1414 81.3521 82.2486 81.8999 82.2486 82.813C82.2486 85.5825 88.2341 84.1318 88.224 87.997C88.224 89.7622 86.6616 90.8985 84.379 90.8985C82.8269 90.8985 81.3051 90.2289 80.3008 89.2753L80.8486 88.2304C81.8327 89.1738 83.1921 89.7217 84.3892 89.7217C85.9211 89.7217 86.8848 89.1028 86.8848 88.068C86.895 85.2275 80.9095 86.7289 80.9095 82.9144C80.9095 81.2405 82.3805 80.1753 84.5921 80.1753C85.8196 80.1753 87.0877 80.5709 87.9703 81.1594L87.4529 82.2347C86.4993 81.6159 85.3732 81.3521 84.5211 81.3521H84.5109Z" fill="#3D4543"/>
<path d="M95.2766 81.2913C92.8723 81.2913 90.9447 83.158 90.9447 85.5218C90.9447 87.8855 92.8723 89.7624 95.2766 89.7624C96.4433 89.7624 97.5897 89.2754 98.4215 88.4841L99.1621 89.2855C98.1172 90.2696 96.6867 90.8986 95.2056 90.8986C92.1317 90.8986 89.707 88.5247 89.707 85.5218C89.707 82.5189 92.1722 80.1855 95.2563 80.1855C96.7172 80.1855 98.1273 80.774 99.152 81.7377L98.4215 82.6203C97.5998 81.7986 96.4433 81.3015 95.2766 81.3015V81.2913Z" fill="#3D4543"/>
<path d="M102.581 80.2056V85.0244H108.992V80.2056H110.21V90.8476H108.992V86.1302H102.581V90.8476H101.363V80.2056H102.581Z" fill="#3D4543"/>
<path d="M123.584 85.5319C123.584 88.5247 121.119 90.8986 118.025 90.8986C114.931 90.8986 112.445 88.5247 112.445 85.5319C112.445 82.5392 114.911 80.1855 118.025 80.1855C121.14 80.1855 123.584 82.5392 123.584 85.5319ZM113.673 85.5319C113.673 87.8855 115.651 89.7928 118.025 89.7928C120.399 89.7928 122.347 87.8957 122.347 85.5319C122.347 83.1682 120.399 81.3015 118.025 81.3015C115.651 81.3015 113.673 83.1682 113.673 85.5319Z" fill="#3D4543"/>
<path d="M135.686 85.5319C135.686 88.5247 133.221 90.8986 130.127 90.8986C127.032 90.8986 124.547 88.5247 124.547 85.5319C124.547 82.5392 127.012 80.1855 130.127 80.1855C133.241 80.1855 135.686 82.5392 135.686 85.5319ZM125.774 85.5319C125.774 87.8855 127.753 89.7928 130.127 89.7928C132.5 89.7928 134.448 87.8957 134.448 85.5319C134.448 83.1682 132.5 81.3015 130.127 81.3015C127.753 81.3015 125.774 83.1682 125.774 85.5319Z" fill="#3D4543"/>
<path d="M139.128 80.2056V89.7215H143.794V90.8476H137.91V80.2056H139.128Z" fill="#3D4543"/>
<path d="M165.199 83.7157C165.199 86.0693 163.668 87.4287 161.02 87.4287H158.22V90.8273H156.992V80.1143H161.02C163.668 80.1143 165.199 81.4331 165.199 83.7056V83.7157ZM164.023 83.7461C164.023 82.1128 162.907 81.2505 160.979 81.2505H158.23V86.3027H160.979C162.907 86.3027 164.023 85.4302 164.023 83.7461Z" fill="#3D4543"/>
<path d="M173.407 88.0882H167.574L166.377 90.8273H165.078L169.887 80.1143H171.155L175.943 90.8273H174.614L173.407 88.0882ZM172.92 86.9519L170.485 81.4432L168.081 86.9519H172.92Z" fill="#3D4543"/>
<path d="M184.639 90.8273L182.387 87.3983C182.174 87.4085 181.94 87.4287 181.697 87.4287H178.856V90.8273H177.629V80.1143H181.697C184.375 80.1143 185.917 81.4331 185.917 83.7056C185.917 85.4606 185.045 86.678 183.503 87.165L186.029 90.8172H184.639V90.8273ZM181.697 86.3027C183.645 86.3027 184.74 85.4302 184.74 83.7461C184.74 82.0621 183.635 81.2505 181.697 81.2505H178.856V86.3027H181.697Z" fill="#3D4543"/>
<path d="M189.915 80.1143V90.8273H188.688V80.1143H189.915Z" fill="#3D4543"/>
<path d="M196.264 81.2608C194.884 81.2608 193.981 81.8086 193.981 82.7318C193.981 85.5115 200.007 84.0608 199.997 87.9463C199.997 89.7217 198.425 90.868 196.122 90.868C194.56 90.868 193.028 90.1985 192.023 89.2347L192.571 88.1796C193.565 89.1333 194.925 89.6811 196.132 89.6811C197.674 89.6811 198.638 89.0521 198.638 88.0173C198.658 85.1564 192.622 86.668 192.622 82.8333C192.622 81.1492 194.103 80.084 196.325 80.084C197.563 80.084 198.831 80.4796 199.723 81.0782L199.206 82.1637C198.242 81.5347 197.106 81.2811 196.254 81.2811L196.264 81.2608Z" fill="#3D4543"/>
<path d="M150.124 90.9999C150.78 90.9999 151.311 90.4685 151.311 89.8129C151.311 89.1574 150.78 88.626 150.124 88.626C149.469 88.626 148.938 89.1574 148.938 89.8129C148.938 90.4685 149.469 90.9999 150.124 90.9999Z" fill="#3D4543"/>
<path d="M9.07996 19.2756C13.402 19.2756 17.0037 15.7654 17.0037 11.4437C17.0037 7.12196 13.402 3.61182 9.07996 3.61182C4.75794 3.61182 1.15625 7.12196 1.15625 11.4437C1.15625 15.7654 4.75794 19.2756 9.07996 19.2756Z" fill="#3D4543"/>
<path d="M199.889 33.5391V18.687C195.76 16.7188 189.764 14.8217 184.254 14.8217C170.172 14.8217 153.179 19.6913 153.179 41.513C153.179 61.6304 113.712 58.4956 113.712 45.6522H137.493C143.165 45.6522 147.487 40.6304 146.665 35.0507C145.356 26.1232 140.507 14.8319 124.345 14.8319C110.161 14.8319 97.6111 24.0638 97.4387 41.7159C97.3981 45.5101 95.9168 53.829 86.1974 53.4333C81.4086 53.2406 78.4461 51.1609 78.4461 46.1797V25.9406H94.9124C94.9124 25.9406 98.1793 17.2159 108.944 12.529C108.863 12.5594 78.436 12.5493 78.436 12.5493V0L62.5784 2.69855V12.5391H41.8611C28.1139 13.0667 20.5858 19.042 20.5858 29.4609C20.5858 38.0942 26.9268 42.7 32.4562 45.7435C38.5943 49.2739 40.7654 50.9681 40.7654 53.5043C40.7654 56.4362 36.7985 58.0594 29.6053 58.0594C28.6922 58.0594 27.6066 57.9985 26.4398 57.8971C20.0684 57.0652 13.6868 52.7333 13.6868 47.3768L13.7071 21.4971C5.64137 23.871 2.05998 19.7826 0.40625 17.3478V48.0058C0.40625 58.4551 8.86767 68.0725 20.525 70.0101C20.525 70.0101 23.5585 70.5174 28.3472 70.5174C45.8889 70.5174 55.9534 63.842 55.9534 52.1855C55.9534 43.1464 50.008 38.6217 43.5859 35.071L42.7641 34.5942C38.1174 31.8956 35.7839 30.5464 35.7839 28.3145C35.7839 26.8232 37.6304 26.1232 42.1858 25.9507H62.5987V47.8739C62.5987 66.1551 75.4735 69.4014 82.6768 69.4927C98.7677 69.7058 104.013 61.2652 104.013 61.2652C104.368 60.9203 104.743 61.0623 104.997 61.3058C116.299 71.9681 145.843 72.5464 158.759 61.2145C159.083 60.9304 159.621 60.9101 159.956 61.184C167.007 66.7739 171.836 69.5029 182.327 69.5029C192.817 69.5029 198.58 65.658 199.899 64.5623V50.7754C195.658 53.8493 190.088 55.6246 185.208 55.6246C176.655 55.6246 169.107 51.242 169.249 43.2377C169.604 23.5565 196.541 32.4029 199.899 33.5797L199.889 33.5391ZM124.142 26.6609C129.255 26.6609 133.324 29.9986 134.257 35.5275H113.611C114.97 29.6841 119.242 26.6609 124.142 26.6609Z" fill="#3D4543"/>
</svg>
